# xmcd CD database file
#
# Track frame offsets:
#	150
#	18483
#	36667
#	53973
#	72469
#	92786
#	108252
#	124668
#
# Disc length: 1827 seconds
#
# Revision: 1
# Processed by: cddbd v1.5.2PL0 Copyright (c) Steve Scherf et al.
# Submitted via: CDex 1.70beta3
#
DISCID=70072108
DTITLE=ROCK'A'TRENCH - ロッカトレンチ
DYEAR=2007
DGENRE=JPop
TTITLE0=South wind
TTITLE1=砂の風に乗って
TTITLE2=19歳
TTITLE3=ニューウェーブ
TTITLE4=Secret of the night
TTITLE5=約束
TTITLE6=ランナーズ・ハイ
TTITLE7=Trench Town Rock (live ver.)
EXTD=YEAR: 2007
EXTT0=
EXTT1=
EXTT2=
EXTT3=
EXTT4=
EXTT5=
EXTT6=
EXTT7=
PLAYORDER=
